<svg width="122" height="24" viewBox="0 0 122 24" fill="none" xmlns="http://www.w3.org/2000/svg">
<path d="M8.64055 8.07107H14.6313L13.4217 10.5948H20.5645C19.1983 13.6644 16.1531 15.6421 12.7932 15.6421H11.2903L7.8341 23.5L4.78111 16.8466L8.64055 8.07107Z" fill="white"/>
<path d="M25 0.5H0L4.55069 10.3653L6.62442 5.60474H17.0136C20.443 5.60474 23.56 3.61242 25 0.5Z" fill="white"/>
<path d="M31.9318 17.5V16.1875L37.8977 7.63068H31.8977V5.86364H40.5114V7.17614L34.5511 15.733H40.5455V17.5H31.9318ZM43.7727 20.7727C43.4924 20.7727 43.233 20.75 42.9943 20.7045C42.7595 20.6629 42.572 20.6136 42.4318 20.5568L42.9091 18.9545C43.2083 19.0417 43.4754 19.0833 43.7102 19.0795C43.9451 19.0758 44.1515 19.0019 44.3295 18.858C44.5114 18.7178 44.6648 18.483 44.7898 18.1534L44.9659 17.6818L41.8011 8.77273H43.983L45.9943 15.3636H46.0852L48.1023 8.77273H50.2898L46.7955 18.5568C46.6326 19.0189 46.4167 19.4148 46.1477 19.7443C45.8788 20.0777 45.5492 20.3314 45.1591 20.5057C44.7727 20.6837 44.3106 20.7727 43.7727 20.7727ZM55.223 17.6705C54.3707 17.6705 53.6321 17.483 53.0071 17.108C52.3821 16.733 51.8973 16.2083 51.5526 15.5341C51.2116 14.8598 51.0412 14.072 51.0412 13.1705C51.0412 12.2689 51.2116 11.4792 51.5526 10.8011C51.8973 10.1231 52.3821 9.59659 53.0071 9.22159C53.6321 8.84659 54.3707 8.65909 55.223 8.65909C56.0753 8.65909 56.8139 8.84659 57.4389 9.22159C58.0639 9.59659 58.5469 10.1231 58.8878 10.8011C59.2325 11.4792 59.4048 12.2689 59.4048 13.1705C59.4048 14.072 59.2325 14.8598 58.8878 15.5341C58.5469 16.2083 58.0639 16.733 57.4389 17.108C56.8139 17.483 56.0753 17.6705 55.223 17.6705ZM55.2344 16.0227C55.6965 16.0227 56.0829 15.8958 56.3935 15.642C56.7041 15.3845 56.9351 15.0398 57.0866 14.608C57.242 14.1761 57.3196 13.6951 57.3196 13.1648C57.3196 12.6307 57.242 12.1477 57.0866 11.7159C56.9351 11.2803 56.7041 10.9337 56.3935 10.6761C56.0829 10.4186 55.6965 10.2898 55.2344 10.2898C54.7609 10.2898 54.367 10.4186 54.0526 10.6761C53.742 10.9337 53.509 11.2803 53.3537 11.7159C53.2022 12.1477 53.1264 12.6307 53.1264 13.1648C53.1264 13.6951 53.2022 14.1761 53.3537 14.608C53.509 15.0398 53.742 15.3845 54.0526 15.642C54.367 15.8958 54.7609 16.0227 55.2344 16.0227ZM65.571 8.77273V10.3636H60.4119V8.77273H65.571ZM61.7017 17.5V7.94886C61.7017 7.36174 61.8229 6.87311 62.0653 6.48295C62.3116 6.0928 62.6411 5.80114 63.054 5.60795C63.4669 5.41477 63.9252 5.31818 64.429 5.31818C64.785 5.31818 65.1013 5.34659 65.3778 5.40341C65.6544 5.46023 65.8589 5.51136 65.9915 5.55682L65.5824 7.14773C65.4953 7.12121 65.3854 7.0947 65.2528 7.06818C65.1203 7.03788 64.9725 7.02273 64.8097 7.02273C64.4271 7.02273 64.1563 7.11553 63.9972 7.30114C63.8419 7.48295 63.7642 7.74432 63.7642 8.08523V17.5H61.7017ZM67.1818 17.5V8.77273H69.2386V17.5H67.1818ZM68.2159 7.53409C67.8902 7.53409 67.6098 7.42614 67.375 7.21023C67.1402 6.99053 67.0227 6.72727 67.0227 6.42045C67.0227 6.10985 67.1402 5.84659 67.375 5.63068C67.6098 5.41098 67.8902 5.30114 68.2159 5.30114C68.5455 5.30114 68.8258 5.41098 69.0568 5.63068C69.2917 5.84659 69.4091 6.10985 69.4091 6.42045C69.4091 6.72727 69.2917 6.99053 69.0568 7.21023C68.8258 7.42614 68.5455 7.53409 68.2159 7.53409ZM73.4105 5.86364V17.5H71.3537V5.86364H73.4105ZM75.5256 17.5V8.77273H77.4915V10.2557H77.5938C77.7756 9.75568 78.0767 9.36553 78.4972 9.08523C78.9176 8.80114 79.4195 8.65909 80.0028 8.65909C80.5938 8.65909 81.0919 8.80303 81.4972 9.09091C81.9063 9.375 82.1941 9.76326 82.3608 10.2557H82.4517C82.6449 9.77083 82.9706 9.38447 83.429 9.09659C83.8911 8.80492 84.4384 8.65909 85.071 8.65909C85.8741 8.65909 86.5294 8.91288 87.0369 9.42045C87.5445 9.92803 87.7983 10.6686 87.7983 11.642V17.5H85.7358V11.9602C85.7358 11.4186 85.5919 11.0227 85.304 10.7727C85.0161 10.5189 84.6638 10.392 84.2472 10.392C83.7509 10.392 83.3627 10.5473 83.0824 10.858C82.8059 11.1648 82.6676 11.5644 82.6676 12.0568V17.5H80.6506V11.875C80.6506 11.4242 80.5142 11.0644 80.2415 10.7955C79.9725 10.5265 79.6203 10.392 79.1847 10.392C78.8892 10.392 78.6203 10.4678 78.3778 10.6193C78.1354 10.767 77.9422 10.9773 77.7983 11.25C77.6544 11.5189 77.5824 11.8333 77.5824 12.1932V17.5H75.5256Z" fill="white"/>
</svg>
